<svg version="1.2" xmlns="http://www.w3.org/2000/svg" viewBox="0 0 1000 782" width="1000" height="782">
	<title>4976882-ai</title>
	<defs>
		<linearGradient id="g1" x1="-228.3" y1="442.4" x2="-191.1" y2="-114.3" gradientUnits="userSpaceOnUse">
			<stop offset="0" stop-color="#094445"/>
			<stop offset="1" stop-color="#00ffff"/>
		</linearGradient>
		<linearGradient id="g2" x1="143.3" y1="779.4" x2="361.3" y2="-14.9" gradientUnits="userSpaceOnUse">
			<stop offset="0" stop-color="#094445"/>
			<stop offset="1" stop-color="#00ffff"/>
		</linearGradient>
		<linearGradient id="g3" x1="0" y1="105.7" x2="634.6" y2="105.7" gradientUnits="userSpaceOnUse">
			<stop offset="0" stop-color="#00ffff"/>
			<stop offset="1" stop-color="#094445"/>
		</linearGradient>
	</defs>
	<style>
		tspan { white-space:pre } 
		.s0 { fill: url(#g1) } 
		.s1 { opacity: .9;fill: url(#g2) } 
		.s2 { opacity: .9;fill: url(#g3) } 
	</style>
	<g id="&lt;Group&gt;">
		<path id="&lt;Path&gt;" class="s0" d="m718 567.8c-35.7 156.5-147.9 203.1-201.6 205.6-58.6-2.2-164.5-40-201.6-205.6-22.4-103.8 9.4-251.2 67.4-366.7 54.7-116.5 135.5-201.2 134.2-200.5-1.3-0.7 79.5 84 134.2 200.5 58 115.5 89.8 262.9 67.4 366.7z"/>
		<path id="&lt;Path&gt;" class="s1" d="m721.2 618.2c-84.2 114.2-180 152.5-228.6 146.3-44.8-9.5-145.6-75-88-293.7 37.6-136 185.2-285.6 331.4-336 145.3-57.6 266.5-30.2 264-31.6 0.2-1.1-60.3 102.2-115.9 210.7-56.9 110.6-107.4 227.3-162.9 304.3z"/>
		<path id="&lt;Path&gt;" class="s2" d="m287.8 627.1c87.1 112.1 186.4 145.8 237 136.7 46.4-12.4 151.3-85.3 92.3-305.8-38.7-137.1-191.4-281.7-343.1-324.8-150.7-50.6-276.6-15.5-274-17.2-0.2-1.1 62.3 101.2 119.6 209.1 58.8 109.9 110.9 226.4 168.2 302z"/>
	</g>
</svg>