<svg width="91" height="92" viewBox="0 0 91 92" fill="none" xmlns="http://www.w3.org/2000/svg">
<circle cx="45.9126" cy="46" r="45.0193" fill="white"/>
<path d="M47.9326 37.9203C49.5398 37.9203 51.0811 38.5587 52.2175 39.6951C53.354 40.8316 53.9924 42.3729 53.9924 43.9801C53.9924 44.5158 54.2052 45.0296 54.5841 45.4084C54.9629 45.7872 55.4766 46 56.0124 46C56.5481 46 57.0619 45.7872 57.4407 45.4084C57.8195 45.0296 58.0323 44.5158 58.0323 43.9801C58.0323 41.3015 56.9682 38.7326 55.0742 36.8385C53.1801 34.9444 50.6112 33.8804 47.9326 33.8804C47.3969 33.8804 46.8831 34.0932 46.5043 34.472C46.1255 34.8508 45.9127 35.3646 45.9127 35.9003C45.9127 36.436 46.1255 36.9498 46.5043 37.3286C46.8831 37.7074 47.3969 37.9203 47.9326 37.9203Z" fill="#094445"/>
<path d="M47.9326 29.8404C51.6827 29.8404 55.2791 31.3301 57.9308 33.9818C60.5825 36.6335 62.0722 40.23 62.0722 43.98C62.0722 44.5157 62.285 45.0295 62.6638 45.4083C63.0426 45.7871 63.5564 46 64.0921 46C64.6279 46 65.1416 45.7871 65.5205 45.4083C65.8993 45.0295 66.1121 44.5157 66.1121 43.98C66.1121 39.1585 64.1967 34.5345 60.7874 31.1252C57.3781 27.7159 52.7541 25.8005 47.9326 25.8005C47.3969 25.8005 46.8831 26.0134 46.5043 26.3922C46.1255 26.771 45.9127 27.2848 45.9127 27.8205C45.9127 28.3562 46.1255 28.87 46.5043 29.2488C46.8831 29.6276 47.3969 29.8404 47.9326 29.8404Z" fill="#094445"/>
<path d="M65.6071 53.8979C65.496 53.5737 65.3042 53.283 65.0497 53.0533C64.7953 52.8236 64.4866 52.6624 64.1527 52.585L52.033 49.8177C51.7041 49.7431 51.3617 49.752 51.037 49.8438C50.7124 49.9355 50.416 50.1071 50.1747 50.3428C49.8919 50.6054 49.8717 50.6256 48.5587 53.1304C44.2021 51.1229 40.7113 47.6176 38.7216 43.2528C41.2869 41.9601 41.3072 41.9601 41.5697 41.6571C41.8055 41.4158 41.9771 41.1193 42.0688 40.7947C42.1605 40.4701 42.1695 40.1277 42.0949 39.7987L39.3276 27.8205C39.2501 27.4866 39.089 27.1779 38.8593 26.9234C38.6296 26.669 38.3389 26.4772 38.0146 26.3661C37.5429 26.1976 37.0558 26.0759 36.5603 26.0025C36.0497 25.8842 35.5288 25.8165 35.0049 25.8005C32.5406 25.8005 30.1772 26.7795 28.4347 28.522C26.6921 30.2646 25.7132 32.628 25.7132 35.0923C25.7239 43.3391 29.0047 51.2451 34.8361 57.0765C40.6675 62.9079 48.5735 66.1887 56.8203 66.1994C58.0405 66.1994 59.2488 65.959 60.3761 65.4921C61.5034 65.0251 62.5277 64.3407 63.3906 63.4779C64.2534 62.6151 64.9378 61.5908 65.4047 60.4634C65.8717 59.3361 66.112 58.1279 66.112 56.9076C66.1127 56.3935 66.0721 55.8802 65.9908 55.3725C65.906 54.8708 65.7775 54.3774 65.6071 53.8979ZM56.8203 62.1595C49.6433 62.1541 42.7617 59.3007 37.6868 54.2258C32.6119 49.1509 29.7584 42.2693 29.7531 35.0923C29.7584 33.701 30.3134 32.3683 31.2972 31.3845C32.281 30.4008 33.6137 29.8457 35.0049 29.8404H35.6715L37.8328 39.213L36.7421 39.7785C35.0049 40.6875 33.6314 41.4147 34.3585 42.9902C35.5427 46.3425 37.4587 49.3889 39.9674 51.9081C42.4761 54.4272 45.5144 56.3559 48.8617 57.554C50.5585 58.2408 51.2251 56.9682 52.134 55.2109L52.7198 54.0999L62.0722 56.2411V56.9076C62.0668 58.2989 61.5118 59.6316 60.528 60.6154C59.5443 61.5991 58.2115 62.1542 56.8203 62.1595Z" fill="#094445"/>
</svg>
