<svg width="58" height="58" viewBox="0 0 58 58" fill="none" xmlns="http://www.w3.org/2000/svg">
<path d="M49.7999 29V53.44C49.7999 54.3016 49.1016 55 48.2399 55H9.75991C8.89834 55 8.19991 54.3016 8.19991 53.44V29" stroke="white" stroke-width="6" stroke-linecap="round" stroke-linejoin="round"/>
<path d="M53.44 16H4.56C3.69844 16 3 16.6984 3 17.56V27.44C3 28.3016 3.69844 29 4.56 29H53.44C54.3016 29 55 28.3016 55 27.44V17.56C55 16.6984 54.3016 16 53.44 16Z" stroke="white" stroke-width="6" stroke-linecap="round" stroke-linejoin="round"/>
<path d="M29 55V16" stroke="white" stroke-width="6" stroke-linecap="round" stroke-linejoin="round"/>
<path d="M29.0001 16H17.3001C15.5762 16 13.9229 15.3152 12.7039 14.0962C11.4849 12.8772 10.8001 11.2239 10.8001 9.5C10.8001 7.7761 11.4849 6.12278 12.7039 4.9038C13.9229 3.68481 15.5762 3 17.3001 3C26.4001 3 29.0001 16 29.0001 16Z" stroke="white" stroke-width="6" stroke-linecap="round" stroke-linejoin="round"/>
<path d="M29 16H40.7C42.4238 16 44.0771 15.3152 45.2963 14.0962C46.5151 12.8772 47.2 11.2239 47.2 9.5C47.2 7.7761 46.5151 6.12278 45.2963 4.9038C44.0771 3.68481 42.4238 3 40.7 3C31.6 3 29 16 29 16Z" stroke="white" stroke-width="6" stroke-linecap="round" stroke-linejoin="round"/>
</svg>
