<svg version="1.2" xmlns="http://www.w3.org/2000/svg" viewBox="0 0 1000 1031" width="1000" height="1031">
	<title>Flower</title>
	<defs>
		<radialGradient id="g1" cx="500" cy="516.9" r="500" gradientUnits="userSpaceOnUse">
			<stop offset="0" stop-color="#ffffff"/>
			<stop offset="1" stop-color="#ffffff"/>
		</radialGradient>
	</defs>
	<style>
		tspan { white-space:pre } 
		.s0 { fill: url(#g1) } 
	</style>
	<g id="OBJECTS">
		<path id="&lt;Compound Path&gt;" fill-rule="evenodd" class="s0" d="m793.7 638.6c62.2 106.1 59.9 231.9 59.9 231.9 0 0-125.8 2.3-232-59.9-31 119.1-121.6 206.3-121.6 206.3 0 0-90.6-87.2-121.6-206.3-106.2 62.2-232 59.9-232 59.9 0 0-2.3-125.8 59.9-231.9-119-31.1-206.3-121.7-206.3-121.7 0 0 87.3-90.5 206.3-121.6-62.2-106.2-59.9-231.9-59.9-231.9 0 0 125.8-2.4 232 59.8 31-119 121.6-206.3 121.6-206.3 0 0 90.6 87.3 121.6 206.3 106.2-62.2 232-59.8 232-59.8 0 0 2.3 125.7-59.9 231.9 119 31.1 206.3 121.6 206.3 121.6 0 0-87.3 90.6-206.3 121.7zm-179.3-236.1c-7.8 23.3-17.7 45.1-28.4 65 33.7-5.3 81.8-19 116.5-53.7 8.9-8.9 16.3-18.6 22.6-28.7 35.9-57.4 34.6-127.8 34.6-127.8 0 0-70.5-1.3-127.9 34.5 0.1 3 0.2 6 0.2 9 0 35.8-6.9 70.1-17.6 101.7zm-180.4-138c2.2 2.1 4.4 4.1 6.5 6.2 25.4 25.4 44.7 54.5 59.5 84.4 10.9 22 19.4 44.4 25.9 66 20-27.6 44.4-71.2 44.4-120.3 0-12.5-1.6-24.6-4.3-36.3-15.2-65.9-66-114.8-66-114.8 0 0-50.8 48.9-66 114.8zm-159.1 120.6c3-0.1 6-0.2 9-0.2 35.8 0 70.1 6.9 101.7 17.6 23.3 7.8 45.1 17.7 65 28.4-5.4-33.7-19-81.8-53.7-116.5-8.9-8.8-18.6-16.3-28.7-22.6-57.4-35.8-127.9-34.5-127.9-34.5 0 0-1.3 70.4 34.6 127.8zm-27.3 197.8c2.1-2.2 4.1-4.4 6.2-6.5 25.4-25.4 54.5-44.7 84.4-59.5 22-10.9 44.4-19.4 66-25.9-27.6-20-71.2-44.3-120.3-44.3-12.5 0-24.7 1.6-36.3 4.2-65.9 15.3-114.8 66-114.8 66 0 0 48.9 50.8 114.8 66zm138 48.5c7.8-23.3 17.7-45.2 28.4-65.1-33.7 5.4-81.8 19-116.5 53.8-8.9 8.8-16.3 18.5-22.6 28.6-35.9 57.4-34.6 127.9-34.6 127.9 0 0 70.5 1.3 127.9-34.6-0.1-3-0.2-5.9-0.2-9 0-35.8 6.9-70.1 17.6-101.6zm180.4 137.9c-2.2-2-4.4-4.1-6.5-6.2-25.4-25.3-44.7-54.5-59.5-84.3-10.9-22.1-19.4-44.5-25.9-66.1-20 27.6-44.4 71.2-44.4 120.3 0 12.5 1.6 24.7 4.3 36.3 15.2 65.9 66 114.8 66 114.8 0 0 50.8-48.9 66-114.8zm159.1-120.6c-3 0.1-6 0.3-9 0.3-35.8 0-70.1-7-101.7-17.6-23.3-7.9-45.1-17.8-65-28.4 5.4 33.6 19 81.7 53.7 116.4 8.9 8.9 18.6 16.3 28.7 22.6 57.4 35.9 127.9 34.6 127.9 34.6 0 0 1.3-70.5-34.6-127.9zm142.1-131.8c0 0-48.9-50.7-114.8-66-2.1 2.2-4.1 4.4-6.2 6.6-25.4 25.3-54.5 44.6-84.4 59.4-22 10.9-44.4 19.4-66 25.9 27.6 20 71.2 44.4 120.3 44.4 12.5 0 24.7-1.6 36.3-4.3 65.9-15.2 114.8-66 114.8-66z"/>
		<g id="&lt;Group&gt;">
		</g>
	</g>
</svg>