<svg width="65" height="66" viewBox="0 0 65 66" fill="none" xmlns="http://www.w3.org/2000/svg">
<path fill-rule="evenodd" clip-rule="evenodd" d="M51.301 25.5003C55.3213 18.6053 55.1727 10.4302 55.1727 10.4302C55.1727 10.4302 47.0416 10.2807 40.1773 14.3228C38.1736 6.58302 32.3176 0.916287 32.3176 0.916287C32.3176 0.916287 26.4617 6.58302 24.458 14.3228C17.5937 10.2807 9.46261 10.4302 9.46261 10.4302C9.46261 10.4302 9.31394 18.6053 13.3343 25.5003C5.64266 27.5213 0 33.409 0 33.409C0 33.409 5.64266 39.2902 13.3343 41.3112C9.31394 48.2127 9.46261 56.3814 9.46261 56.3814C9.46261 56.3814 17.5937 56.5373 24.458 52.4952C26.4617 60.2285 32.3176 65.9017 32.3176 65.9017C32.3176 65.9017 38.1736 60.2285 40.1773 52.4952C47.0416 56.5373 55.1727 56.3814 55.1727 56.3814C55.1727 56.3814 55.3213 48.2127 51.301 41.3112C58.9926 39.2902 64.6353 33.409 64.6353 33.409C64.6353 33.409 58.9926 27.5213 51.301 25.5003ZM39.7119 40.8433C39.2078 39.3292 38.5679 37.9125 37.8763 36.6193C40.0545 36.9637 43.1634 37.854 45.4063 40.109C45.9815 40.6874 46.4598 41.3177 46.867 41.9741C49.1874 45.7043 49.1034 50.2792 49.1034 50.2792C49.1034 50.2792 44.5466 50.3637 40.8366 48.0372C40.843 47.8423 40.8495 47.6473 40.8495 47.4524C40.8495 45.1259 40.4035 42.8969 39.7119 40.8433ZM28.0517 49.8113C28.1939 49.6749 28.3361 49.5449 28.4718 49.4084C30.1136 47.7578 31.361 45.8667 32.3176 43.9237C33.0222 42.494 33.5716 41.0383 33.9917 39.6346C35.2844 41.4282 36.8615 44.2616 36.8615 47.4524C36.8615 48.2647 36.7581 49.051 36.5836 49.8113C35.6011 54.0939 32.3176 57.2717 32.3176 57.2717C32.3176 57.2717 29.0342 54.0939 28.0517 49.8113ZM17.7682 41.9741C17.9621 41.9806 18.1561 41.9871 18.35 41.9871C20.6639 41.9871 22.8809 41.5387 24.9234 40.8433C26.4294 40.3365 27.8384 39.6931 29.1247 38.9978C28.7756 41.1878 27.8966 44.3136 25.6537 46.5686C25.0785 47.1404 24.4515 47.6278 23.7987 48.0372C20.0886 50.3637 15.5319 50.2792 15.5319 50.2792C15.5319 50.2792 15.4478 45.7043 17.7682 41.9741ZM16.0037 29.12C16.1394 29.2629 16.2687 29.4059 16.4044 29.5424C18.0462 31.193 19.9271 32.4472 21.8597 33.409C23.2816 34.1173 24.7295 34.6697 26.1256 35.0921C24.3416 36.3918 21.5235 37.971 18.35 37.971C17.542 37.971 16.7535 37.867 16.0037 37.698C11.7442 36.7038 8.58357 33.409 8.58357 33.409C8.58357 33.409 11.7442 30.1077 16.0037 29.12ZM24.9234 25.9682C25.4275 27.4823 26.0674 28.9055 26.759 30.1987C24.5808 29.8478 21.4718 28.964 19.229 26.7025C18.6537 26.1306 18.1754 25.5003 17.7682 24.8439C15.4478 21.1138 15.5319 16.5323 15.5319 16.5323C15.5319 16.5323 20.0886 16.4478 23.7987 18.7808C23.7922 18.9757 23.7858 19.1642 23.7858 19.3657C23.7858 21.6921 24.2318 23.9211 24.9234 25.9682ZM36.5836 17.0067C36.4414 17.1367 36.2992 17.2731 36.1634 17.4096C34.5217 19.0537 33.2742 20.9513 32.3176 22.8879C31.6131 24.324 31.0637 25.7797 30.6436 27.1834C29.3509 25.3898 27.7738 22.5564 27.7738 19.3657C27.7738 18.5533 27.8772 17.7605 28.0517 17.0067C29.0342 12.7241 32.3176 9.54636 32.3176 9.54636C32.3176 9.54636 35.6011 12.7241 36.5836 17.0067ZM46.867 24.8439C46.6731 24.8374 46.4792 24.8244 46.2853 24.8244C43.9714 24.8244 41.7544 25.2793 39.7119 25.9682C38.2059 26.4816 36.7969 27.1249 35.5106 27.8138C35.8597 25.6303 36.7387 22.5045 38.9815 20.2495C39.5568 19.6711 40.1838 19.1902 40.8366 18.7808C44.5466 16.4478 49.1034 16.5323 49.1034 16.5323C49.1034 16.5323 49.1874 21.1138 46.867 24.8439ZM56.0517 33.409C56.0517 33.409 52.8911 36.7038 48.6316 37.698C48.4959 37.5551 48.3666 37.4121 48.2308 37.2691C46.5891 35.625 44.7082 34.3708 42.7756 33.409C41.3537 32.7007 39.9058 32.1483 38.5097 31.7259C40.2936 30.4262 43.1117 28.8405 46.2853 28.8405C47.0933 28.8405 47.8818 28.9445 48.6316 29.12C52.8911 30.1077 56.0517 33.409 56.0517 33.409Z" fill="url(#paint0_radial_1_27)"/>
<defs>
<radialGradient id="paint0_radial_1_27" cx="0" cy="0" r="1" gradientUnits="userSpaceOnUse" gradientTransform="translate(32.3176 33.409) scale(32.3176 32.4927)">
<stop stop-color="white"/>
<stop offset="1" stop-color="white"/>
</radialGradient>
</defs>
</svg>
