<svg width="70" height="70" viewBox="0 0 70 70" fill="none" xmlns="http://www.w3.org/2000/svg">
<path d="M34.6751 40.8041L27.9799 47.4993C29.0271 49.9688 29.1828 52.7257 28.4202 55.2974C27.6577 57.8691 26.0244 60.0955 23.8004 61.5951C21.5763 63.0947 18.8999 63.774 16.2299 63.5166C13.5599 63.2593 11.0625 62.0813 9.1658 60.1846C7.26907 58.2879 6.09109 55.7905 5.83376 53.1205C5.57642 50.4505 6.25575 47.7741 7.75531 45.55C9.25487 43.326 11.4813 41.6927 14.053 40.9302C16.6247 40.1676 19.3816 40.3233 21.8511 41.3705L28.5492 34.6753L12.1652 18.3001C11.6283 17.7634 11.2024 17.1262 10.9119 16.4249C10.6213 15.7236 10.4717 14.9719 10.4717 14.2127C10.4717 13.4536 10.6213 12.7019 10.9119 12.0006C11.2024 11.2993 11.6283 10.6621 12.1652 10.1254L14.2111 8.08249L34.6751 28.5494L55.1362 8.08538L57.182 10.1283C57.7189 10.665 58.1448 11.3022 58.4354 12.0035C58.726 12.7048 58.8755 13.4565 58.8755 14.2156C58.8755 14.9748 58.726 15.7264 58.4354 16.4278C58.1448 17.1291 57.7189 17.7663 57.182 18.3029L40.801 34.6753L47.4962 41.3705C49.9657 40.3233 52.7225 40.1676 55.2943 40.9302C57.866 41.6927 60.0924 43.326 61.592 45.55C63.0915 47.7741 63.7709 50.4505 63.5135 53.1205C63.2562 55.7905 62.0782 58.2879 60.1815 60.1846C58.2847 62.0813 55.7874 63.2593 53.1174 63.5166C50.4474 63.774 47.771 63.0947 45.5469 61.5951C43.3228 60.0955 41.6896 57.8691 40.927 55.2974C40.1645 52.7257 40.3202 49.9688 41.3674 47.4993L34.6751 40.8012V40.8041ZM17.3376 57.792C18.8703 57.792 20.3403 57.1831 21.4241 56.0993C22.5079 55.0155 23.1167 53.5456 23.1167 52.0128C23.1167 50.4801 22.5079 49.0101 21.4241 47.9263C20.3403 46.8425 18.8703 46.2337 17.3376 46.2337C15.8049 46.2337 14.3349 46.8425 13.2511 47.9263C12.1673 49.0101 11.5584 50.4801 11.5584 52.0128C11.5584 53.5456 12.1673 55.0155 13.2511 56.0993C14.3349 57.1831 15.8049 57.792 17.3376 57.792ZM52.0126 57.792C53.5453 57.792 55.0153 57.1831 56.0991 56.0993C57.1829 55.0155 57.7917 53.5456 57.7917 52.0128C57.7917 50.4801 57.1829 49.0101 56.0991 47.9263C55.0153 46.8425 53.5453 46.2337 52.0126 46.2337C50.4798 46.2337 49.0099 46.8425 47.9261 47.9263C46.8423 49.0101 46.2334 50.4801 46.2334 52.0128C46.2334 53.5456 46.8423 55.0155 47.9261 56.0993C49.0099 57.1831 50.4798 57.792 52.0126 57.792Z" fill="white"/>
</svg>
